<svg xmlns="http://www.w3.org/2000/svg" viewBox="0 0 512 512" id="clap"><path d="M444.534 295.011a28.651 28.651 0 0 0-9.924-8.609l2.589-1.875a32.44 32.44 0 0 0-6.217-56.02 32.429 32.429 0 0 0-37.915-52.186 32.631 32.631 0 0 0-16.609-25.756 32.416 32.416 0 0 0-50.192-33.39A32.679 32.679 0 0 0 273 97.578c-30.692 25.812-79.72 68.371-107.935 92.948a76.845 76.845 0 0 0-1.506-44.277 35.173 35.173 0 0 0-67.444 2.93l-4.606 18.7a135.066 135.066 0 0 1-24.979 51.312 223.252 223.252 0 0 0-43.35 95.388l-1.98 7.147a103.192 103.192 0 0 0 59.812 122.737 103.369 103.369 0 0 0 4.383 6.587 102.856 102.856 0 0 0 107.118 39.9 277.349 277.349 0 0 0 85.588-35.9 987.691 987.691 0 0 0 81.236-57.674l79.709-62.9a28.714 28.714 0 0 0 5.488-39.465zM411.9 188.179a16.428 16.428 0 0 1 7.029 29.53l-27.439 19.853a28.987 28.987 0 0 0-4.14-6.35 28.6 28.6 0 0 0-10.612-7.751l2.439-2.093a32.323 32.323 0 0 0 11.266-23.6l9.22-6.672a16.318 16.318 0 0 1 12.237-2.917zm-38.878-20.124a32.4 32.4 0 0 0-4.672-1.984c.35-.371.692-.747 1.021-1.13a16.524 16.524 0 0 1 3.646 3.114zM54.442 405.91A86.931 86.931 0 0 1 36.621 326l2.067-7.463c.058-.214.109-.428.15-.646a207.169 207.169 0 0 1 40.286-88.831 150.97 150.97 0 0 0 27.918-57.36l4.606-18.7a19.173 19.173 0 0 1 36.764-1.6 60.714 60.714 0 0 1 .136 38.535l-7.726 23.2a8 8 0 0 0 12.858 8.548c.843-.737 84.845-74.219 129.616-111.87a16.693 16.693 0 0 1 21.604 25.462l-.007.007-57.026 48.911a8 8 0 0 0 10.416 12.145l75.777-64.994a16.429 16.429 0 0 1 21.392 24.94L276.8 223.751a8 8 0 0 0 10.412 12.149l60.138-51.58a16.429 16.429 0 0 1 23.1 1.738l.069.081a16.4 16.4 0 0 1-1.762 23.091c-35.849 30.762-61.531 52.792-61.531 52.792a8 8 0 1 0 10.416 12.144s15.606-13.385 39.465-33.856c.024-.021.051-.038.076-.059a12.781 12.781 0 0 1 17.038 19.049l-74.251 69.251A971.771 971.771 0 0 1 225 391.683a261.389 261.389 0 0 1-77.6 40.358 86.844 86.844 0 0 1-92.958-26.131zm374.692-83.993-79.709 62.9a971.48 971.48 0 0 1-79.914 56.736 261.424 261.424 0 0 1-80.665 33.824 86.808 86.808 0 0 1-82.325-23.992 102.981 102.981 0 0 0 45.82-4.124 277.376 277.376 0 0 0 82.336-42.833 987.774 987.774 0 0 0 76.206-64.175L385.134 271a28.7 28.7 0 0 0 8.595-15.3L408.52 245a16.422 16.422 0 0 1 19.3 26.579c-38.262 27.7-65.673 47.538-65.674 47.538a8 8 0 1 0 9.38 12.963s16.645-12.045 42.1-30.468c.035-.025.072-.045.108-.071a12.78 12.78 0 0 1 15.409 20.387zM192.314 54.521a8 8 0 0 0 14.319-7.14l-12.454-24.975a8 8 0 1 0-14.319 7.141zm-56.794 52.39 27.855 1.7c.167.01.331.015.5.015a8 8 0 0 0 .481-15.985L136.5 90.94a8 8 0 1 0-.976 15.971zm120.365-43.287a8 8 0 0 0 11.087-2.257l15.4-23.273a8 8 0 0 0-13.344-8.83l-15.4 23.273a8 8 0 0 0 2.257 11.087zm146.357 376.731a8 8 0 0 0-14.318 7.141l12.454 24.975a8 8 0 1 0 14.322-7.141zm56.795-52.389-27.855-1.7a8 8 0 1 0-.977 15.97l27.856 1.7c.167.009.331.014.5.014a8 8 0 0 0 .48-15.985zm-120.365 43.287a8 8 0 0 0-11.087 2.257l-15.4 23.273a8 8 0 1 0 13.343 8.83l15.4-23.273a8 8 0 0 0-2.256-11.087z"></path></svg>