<svg id="SvgjsSvg1048" width="288" height="288" xmlns="http://www.w3.org/2000/svg" version="1.1" xmlns:xlink="http://www.w3.org/1999/xlink" xmlns:svgjs="http://svgjs.com/svgjs"><defs id="SvgjsDefs1049"></defs><g id="SvgjsG1050"><svg xmlns="http://www.w3.org/2000/svg" xmlns:svgjs="http://svgjs.com/svgjs" xmlns:xlink="http://www.w3.org/1999/xlink" viewBox="0 0 288 288" width="288" height="288"><svg xmlns="http://www.w3.org/2000/svg" viewBox="0 0 150 150" width="288" height="288"><circle cx="75" cy="75" r="64" fill="#4f45e4" class="color334d5c svgShape color4f45e4"></circle><path fill="#ffffff" d="M51.418 92.397l-7.475-37.371L61.727 73.71l14.292-21.263 13.543 21.134 16.495-15.463-6.701 34.278z" class="colorfcd462 svgShape colorfff"></path><path fill="#ffffff" d="M97.84 92.397H51.838c-3.15 0-5.703 2.596-5.703 5.799 0 3.203 2.553 5.799 5.703 5.799h46.004c3.15 0 5.703-2.596 5.703-5.8 0-3.202-2.554-5.798-5.703-5.798z" class="colorf6c358 svgShape colorfff"></path><circle cx="43.943" cy="55.026" r="6.443" fill="#ffffff" class="colore56353 svgShape colorfff"></circle><circle cx="106.057" cy="57.088" r="6.443" fill="#ffffff" class="colore56353 svgShape colorfff"></circle><circle cx="75.515" cy="52.448" r="6.443" fill="#ffffff" class="color44c4a1 svgShape colorfff"></circle><path fill="#ffffff" d="M75 68.686v10.537h5.05z" class="colord15241 svgShape colorfff"></path><path fill="#ffffff" d="M69.95 79.223H75V68.686zM75 89.761V79.223h5.05z" class="colore56353 svgShape colorfff"></path><path fill="#ffffff" d="M69.95 79.223H75v10.538z" class="colord15241 svgShape colorfff"></path><path fill="#ffffff" d="M71.45 74.297l1.025-1.874 1.025 1.874 1.875 1.025-1.875 1.025-1.025 1.875-1.025-1.875-1.874-1.025z" class="colorfff svgShape"></path></svg></svg></g></svg>