<svg xmlns="http://www.w3.org/2000/svg" width="163.839" height="163.839" fill-rule="evenodd" clip-rule="evenodd" image-rendering="optimizeQuality" shape-rendering="geometricPrecision" text-rendering="geometricPrecision" viewBox="0 0 1707 1707" id="college">
  <defs>
    <linearGradient id="a" x1="473.217" x2="1233.44" y1="-41.768" y2="1748.42" gradientUnits="userSpaceOnUse">
      <stop offset="0" stop-color="#401379"></stop>
      <stop offset=".502" stop-color="#8a0b92"></stop>
      <stop offset="1" stop-color="#ec067f"></stop>
    </linearGradient>
  </defs>
  <path fill="url(#a)" d="M1408 672l0 -273 -236 90 0 285c0,14 -14,24 -27,19 -374,-148 -632,1 -659,1 -11,0 -20,-9 -20,-20l0 -286 -262 -99c-17,-7 -17,-31 0,-38l608 -235c5,-1 10,-1 15,0l607 235c8,2 14,8 14,19l0 302c13,8 30,23 60,44 5,4 8,10 8,16l0 114c0,23 -19,42 -42,42 -152,0 -134,16 -134,-156 0,-6 3,-12 8,-16 30,-21 47,-36 60,-44zm-236 -225l200 -77 -553 -213 -552 213 199 77 0 -52c0,-10 7,-18 17,-20 59,-9 294,-39 338,-36 110,7 222,19 334,36 10,2 17,10 17,20l0 52zm344 930l-605 0 67 116c8,14 -5,33 -21,29l-73 -15 -24 71 -19 14c-7,0 -14,-4 -17,-10l-89 -154 -88 154c-3,6 -10,10 -17,10l-19 -14 -24 -70 -73 14c-16,4 -29,-15 -21,-29l67 -116 -370 0c-105,0 -190,-86 -190,-191l0 -23c0,-105 85,-190 190,-190l1326 0c105,0 191,85 191,190l0 23c0,105 -86,191 -191,191zm-619 -40l462 0c-45,-35 -74,-90 -74,-151l0 -23c0,-61 29,-115 74,-150l-498 0c107,75 124,226 36,324zm579 0l40 0c83,0 151,-68 151,-151l0 -23c0,-83 -68,-150 -151,-150l-42 0c-82,0 -149,68 -149,150l0 23c0,83 65,149 151,151zm-739 -324c-100,0 -179,79 -179,178 0,98 75,175 179,178 98,-2 176,-81 176,-178 0,-98 -79,-177 -176,-178zm-127 0l-420 0c-83,0 -150,67 -150,150l0 23c0,83 67,151 150,151l384 0c-88,-98 -71,-249 36,-324zm125 301c-67,0 -123,-55 -123,-123 0,-68 56,-124 123,-124 68,0 124,56 124,124 0,68 -56,123 -124,123zm0 -207c-109,0 -109,167 0,167 110,0 110,-167 0,-167zm-124 262l-61 105c72,-14 61,-21 85,49l67 -117c-33,-5 -65,-18 -91,-37zm158 37l67 117c24,-70 13,-63 85,-49l-61 -105c-26,19 -58,32 -91,37zm738 -95c-71,0 -129,-58 -129,-129l0 -15c0,-115 149,-159 149,-108 0,11 -9,20 -20,20 -119,0 -119,192 0,192 26,0 26,40 0,40zm-1001 -741c205,-70 415,-70 626,-1l0 -157c-105,-16 -210,-27 -313,-33 -103,6 -208,17 -313,33l0 158zm626 41c-324,-110 -554,-20 -626,2l0 132c208,-78 417,-76 626,0l0 -134zm248 132l2 105 94 -2 0 -103 -48 -35 -48 35z"></path>
</svg>
